<?xml version="1.0" standalone="no"?>
<!DOCTYPE svg PUBLIC "-//W3C//DTD SVG 20010904//EN"
 "http://www.w3.org/TR/2001/REC-SVG-20010904/DTD/svg10.dtd">
<svg version="1.0" xmlns="http://www.w3.org/2000/svg"
 width="4088.000000pt" height="4088.000000pt" viewBox="0 0 4088.000000 4088.000000"
 preserveAspectRatio="xMidYMid meet">
<metadata>
Created by potrace 1.14, written by Peter Selinger 2001-2017
</metadata>
<g transform="translate(0.000000,4088.000000) scale(0.100000,-0.100000)"
fill="#000000" stroke="none">
<path d="M26707 23873 c-2 -5 -3 -1508 -3 -3341 1 -2490 4 -3335 13 -3340 14
-9 1130 -8 1139 1 4 4 9 6373 5 6650 l-1 37 -574 0 c-316 0 -576 -3 -579 -7z"/>
<path d="M28958 23873 c-2 -5 -4 -260 -3 -568 l1 -560 569 -1 c314 0 575 1
580 3 7 2 10 198 9 566 l-2 562 -575 3 c-317 1 -577 -1 -579 -5z"/>
<path d="M31209 23873 c0 -5 -1 -1510 -2 -3345 -2 -3330 -2 -3337 18 -3340 39
-6 1065 -2 1071 5 3 3 6 580 7 1281 0 702 1 1276 3 1276 1 0 31 -39 65 -87 35
-49 66 -90 69 -93 3 -3 21 -27 40 -55 19 -27 38 -51 42 -53 4 -2 8 -10 8 -18
0 -8 3 -14 8 -14 4 -1 23 -24 42 -51 19 -28 46 -65 60 -84 14 -18 33 -44 42
-57 9 -12 46 -63 82 -111 37 -48 66 -90 66 -93 0 -2 8 -12 18 -23 9 -10 35
-44 57 -76 22 -32 48 -66 57 -76 9 -10 22 -27 28 -39 6 -12 18 -29 25 -38 18
-22 79 -105 234 -317 69 -93 127 -172 130 -175 3 -3 22 -27 41 -55 19 -27 38
-54 43 -60 6 -8 130 -178 209 -286 10 -13 48 -65 85 -116 38 -50 75 -101 83
-113 8 -11 51 -70 95 -129 44 -60 118 -161 165 -225 46 -64 87 -116 90 -117
24 -5 1503 -3 1506 2 3 6 -78 117 -95 129 -3 3 -42 50 -86 105 -44 55 -82 102
-85 105 -3 3 -41 50 -84 105 -44 55 -82 102 -86 105 -3 3 -34 41 -69 85 -35
44 -79 100 -99 124 -20 24 -49 60 -65 80 -39 50 -45 58 -107 132 -30 36 -66
80 -80 98 -14 19 -33 43 -43 55 -10 11 -26 30 -35 41 -10 11 -31 38 -47 60
-31 41 -52 65 -85 100 -11 12 -20 26 -20 32 0 6 -4 13 -9 15 -5 2 -40 41 -78
88 -37 47 -74 92 -81 100 -6 8 -36 45 -65 81 -28 36 -68 85 -87 109 -19 24
-58 71 -86 104 -27 34 -86 106 -130 161 -43 55 -81 102 -84 105 -3 3 -61 75
-129 160 -68 85 -129 160 -135 165 -6 6 -26 30 -45 55 -19 25 -50 63 -68 86
l-33 41 32 44 c18 24 37 49 43 55 5 6 17 21 25 34 31 45 289 396 304 412 8 9
23 29 33 45 10 15 23 35 30 43 23 29 318 429 428 580 83 113 85 116 108 141 9
10 14 19 11 19 -3 0 1 6 8 14 7 8 21 24 30 37 22 31 176 240 290 394 102 137
113 152 162 218 20 26 36 49 36 52 0 3 7 13 16 23 14 16 40 49 89 118 22 30
70 93 84 110 4 5 13 19 19 31 11 20 11 20 -656 20 l-667 -1 -70 -99 c-38 -55
-96 -136 -127 -181 -32 -45 -74 -106 -95 -136 -20 -30 -45 -64 -55 -74 -10
-11 -18 -23 -18 -27 0 -4 -6 -14 -12 -21 -7 -7 -26 -33 -43 -58 -16 -25 -34
-49 -38 -55 -9 -11 -139 -196 -189 -268 -18 -27 -37 -54 -43 -60 -5 -7 -28
-39 -50 -71 -22 -33 -44 -64 -50 -70 -20 -22 -75 -107 -75 -115 0 -5 -4 -11
-8 -13 -4 -1 -23 -25 -42 -53 -19 -27 -38 -52 -41 -55 -3 -3 -30 -41 -60 -85
-30 -44 -58 -84 -62 -90 -5 -5 -57 -80 -117 -165 -60 -85 -114 -160 -119 -167
-6 -7 -11 -17 -11 -23 0 -5 -3 -10 -7 -10 -5 0 -19 -18 -33 -40 -13 -22 -28
-40 -32 -40 -4 0 -8 -4 -8 -10 0 -8 -176 -263 -222 -322 -12 -14 -14 314 -14
1980 l0 1997 -577 3 c-317 1 -577 -1 -578 -5z"/>
<path d="M2467 22384 c-1 -1 -45 -5 -97 -8 -104 -8 -149 -12 -195 -20 -16 -3
-50 -8 -75 -11 -38 -6 -75 -13 -200 -40 -8 -1 -35 -8 -60 -15 -25 -7 -49 -13
-55 -14 -21 -4 -151 -48 -182 -62 -17 -8 -35 -14 -40 -14 -7 0 -150 -71 -223
-111 -31 -18 -167 -106 -183 -120 -7 -5 -41 -31 -77 -57 -36 -25 -67 -49 -70
-52 -3 -3 -23 -20 -45 -38 -335 -279 -545 -544 -716 -902 -64 -134 -145 -351
-163 -440 -10 -48 -15 -72 -20 -88 -3 -9 -8 -34 -12 -56 -3 -21 -7 -47 -9 -56
-2 -10 -7 -40 -11 -67 -3 -26 -8 -57 -11 -68 -11 -58 -17 -193 -17 -390 0
-193 4 -278 19 -375 2 -14 6 -38 9 -55 8 -52 37 -179 47 -205 5 -14 11 -34 13
-45 9 -47 94 -242 145 -331 6 -10 29 -68 52 -129 23 -60 69 -162 102 -225 56
-108 171 -292 206 -330 9 -10 37 -44 64 -76 54 -68 208 -220 317 -314 89 -78
73 -65 190 -150 52 -39 100 -74 107 -80 7 -5 15 -10 18 -10 3 0 32 -17 63 -38
31 -21 68 -43 82 -50 14 -6 32 -16 40 -21 63 -39 303 -132 375 -146 11 -2 20
-4 20 -5 0 -1 7 -3 15 -5 8 -1 35 -8 60 -15 50 -14 70 -18 119 -26 18 -3 43
-8 55 -10 30 -6 129 -20 201 -29 103 -12 215 -16 390 -16 183 1 238 4 335 15
25 3 72 8 105 12 33 3 69 8 80 10 11 2 36 7 55 10 19 3 67 12 106 20 39 9 77
17 85 18 8 1 34 8 59 15 25 8 50 14 55 16 6 1 17 5 25 8 14 5 89 30 100 32 3
1 16 6 30 12 23 10 65 27 82 33 14 5 149 77 209 112 35 20 111 70 169 112 113
81 154 114 284 229 187 165 358 366 470 552 26 44 52 87 57 95 5 8 21 40 35
70 15 30 30 57 34 60 9 7 98 220 104 250 2 14 14 52 25 85 11 33 22 71 25 85
7 37 13 60 29 131 14 58 20 83 31 144 2 11 7 40 10 65 3 25 8 54 10 65 2 11 7
54 11 95 4 41 9 93 11 115 6 63 6 325 0 380 -7 56 -10 80 -20 145 -4 25 -6 47
-5 50 1 3 -3 15 -9 26 -6 12 -14 36 -17 55 -6 34 -41 161 -52 189 -3 8 -7 20
-9 25 -7 28 -65 203 -73 220 -5 11 -22 58 -37 105 -15 47 -29 90 -33 95 -3 6
-6 12 -7 15 -5 21 -32 80 -71 156 -25 49 -51 99 -57 111 -6 13 -14 23 -18 23
-5 0 -8 5 -8 11 0 16 -117 181 -187 265 -304 364 -609 595 -1008 764 -55 23
-109 46 -120 51 -31 13 -170 58 -197 63 -38 8 -60 13 -123 29 -33 8 -94 21
-135 27 -41 6 -86 14 -100 17 -14 3 -43 6 -65 8 -22 1 -74 6 -115 10 -69 7
-407 15 -413 9z m383 -1149 c141 -20 157 -24 255 -56 235 -78 478 -252 650
-463 22 -27 46 -55 53 -62 6 -7 12 -15 12 -18 0 -3 13 -25 30 -49 47 -69 134
-247 130 -265 0 -1 7 -16 15 -32 9 -17 13 -30 11 -30 -3 0 1 -18 9 -39 7 -22
16 -52 18 -68 3 -15 8 -39 11 -53 28 -117 39 -405 22 -560 -4 -36 -9 -83 -11
-105 -3 -22 -7 -51 -10 -65 -3 -14 -8 -38 -11 -55 -9 -46 -12 -60 -15 -60 -1
0 -3 -9 -4 -20 -3 -32 -46 -169 -56 -179 -5 -6 -9 -16 -9 -24 0 -34 -157 -319
-182 -330 -5 -2 -8 -9 -8 -16 0 -6 -8 -19 -17 -28 -10 -8 -28 -29 -41 -46 -28
-38 -136 -143 -160 -157 -10 -5 -34 -22 -53 -37 -80 -62 -297 -152 -429 -177
-30 -6 -68 -13 -85 -16 -66 -13 -157 -19 -295 -19 -201 0 -359 14 -467 44 -18
4 -33 6 -33 4 0 -3 -9 0 -21 6 -11 7 -33 14 -47 16 -45 8 -194 72 -257 111
-129 79 -233 174 -320 296 -24 34 -49 68 -56 75 -43 50 -171 341 -196 446 -11
46 -22 92 -27 115 -39 168 -49 513 -20 664 2 12 6 37 9 57 4 29 18 85 39 155
2 6 6 24 11 40 16 61 120 311 135 325 3 3 17 30 32 60 69 140 125 225 184 282
75 71 140 128 149 128 2 0 23 13 47 29 51 34 146 81 165 81 7 0 13 5 13 10 0
6 3 9 8 8 4 -1 32 6 62 16 72 23 211 53 286 61 32 4 60 8 61 9 10 9 337 1 413
-9z"/>
<path d="M8577 22384 c-1 -1 -33 -5 -72 -8 -112 -11 -134 -14 -240 -41 -133
-34 -121 -30 -199 -60 -199 -75 -342 -164 -501 -309 -27 -25 -53 -45 -57 -46
-5 0 -8 -4 -8 -10 0 -5 -17 -27 -37 -48 -45 -47 -103 -113 -103 -117 0 -2 -14
-19 -30 -37 l-31 -33 0 175 c0 96 0 183 0 193 1 32 1 67 0 80 0 6 0 30 0 52 1
22 0 47 0 55 -1 8 0 20 1 25 1 6 2 24 1 40 l-1 31 -607 -1 -608 0 0 -255 c1
-165 -3 -258 -10 -262 -6 -5 -6 -8 0 -8 7 0 10 -85 10 -240 0 -132 -4 -240 -8
-240 -5 0 -5 -5 -1 -12 12 -19 11 -772 -1 -780 -6 -5 -6 -8 0 -8 7 0 9 -268 8
-787 -3 -935 -3 -731 0 -1210 1 -222 -1 -403 -6 -403 -4 0 -5 -5 -1 -12 12
-19 11 -778 -1 -778 -7 0 -7 -3 0 -8 6 -4 10 -23 10 -42 l0 -35 574 0 c518 0
574 2 582 16 4 9 5 19 2 23 -6 5 -6 107 -1 141 1 6 -2 23 -6 38 -4 17 -2 27 4
27 6 0 8 5 5 10 -6 9 -10 302 -5 325 1 6 1 15 0 20 -4 21 -2 86 3 91 3 3 2 18
-3 32 -4 15 -3 37 1 50 5 12 5 22 1 22 -6 0 -8 87 -2 115 1 6 2 13 0 18 -2 8
-1 190 2 210 1 7 -2 25 -6 40 -3 15 -3 27 2 27 4 0 6 21 4 48 -4 47 -4 59 -3
97 1 11 1 47 1 80 0 33 1 65 1 70 0 6 -1 35 -2 65 -1 30 0 60 1 65 1 6 2 15 0
20 -4 23 -2 156 3 161 3 3 1 19 -3 35 -5 18 -5 29 1 29 6 0 7 5 3 11 -6 10 -7
169 -2 212 1 7 -2 25 -6 40 -4 17 -2 27 4 27 6 0 9 4 6 9 -8 12 -8 79 -2 271
5 156 8 200 22 338 3 31 7 73 9 92 5 47 14 118 21 155 4 17 8 39 9 50 2 11 11
52 20 90 9 39 18 77 20 85 2 8 4 15 5 15 1 0 3 8 6 18 7 31 11 42 22 70 7 16
12 33 12 38 0 5 4 17 10 27 5 9 21 42 34 73 14 30 29 59 33 63 5 4 8 11 8 14
0 4 23 38 50 77 61 86 153 176 214 212 25 14 48 29 51 33 3 3 35 18 72 33 60
24 87 32 183 53 61 14 149 19 310 17 185 -1 218 -4 328 -28 12 -3 31 -7 42 -9
49 -10 182 -68 235 -103 76 -50 174 -139 210 -193 8 -12 23 -32 33 -43 36 -42
118 -233 119 -277 0 -3 5 -16 10 -30 5 -14 12 -35 14 -47 2 -13 7 -35 10 -50
17 -80 32 -176 39 -238 3 -38 9 -86 11 -105 14 -121 17 -326 20 -1500 2 -718
4 -1321 4 -1340 l0 -35 603 0 c331 0 605 3 608 7 8 12 5 3185 -3 3193 -4 4 -3
17 2 30 5 13 6 26 3 29 -4 3 -8 36 -9 74 -3 67 -11 167 -14 167 -1 0 -3 21 -5
46 -4 62 -77 353 -121 486 -39 117 -122 303 -136 303 -4 0 -8 6 -8 14 0 8 -3
16 -8 18 -4 2 -29 32 -56 68 -126 169 -296 343 -410 419 -42 28 -76 47 -76 43
0 -4 -4 -2 -8 3 -20 29 -361 154 -462 171 -8 1 -37 7 -65 13 -54 13 -78 17
-140 25 -22 3 -49 7 -60 10 -58 12 -476 30 -488 20z"/>
<path d="M14075 22382 c-2 -2 -26 -5 -54 -8 -46 -3 -73 -7 -127 -18 -12 -2
-37 -7 -55 -10 -32 -5 -155 -40 -189 -53 -8 -3 -19 -7 -25 -9 -34 -9 -81 -30
-87 -39 -4 -5 -8 -7 -8 -3 0 17 -260 -129 -323 -182 -116 -98 -227 -210 -302
-304 -44 -56 -65 -80 -66 -75 -1 2 -3 132 -4 289 -1 157 -3 287 -4 291 0 3
-260 5 -577 5 -535 0 -575 -1 -571 -17 3 -9 1 -23 -3 -30 -5 -7 -4 -23 1 -36
5 -15 5 -23 -2 -23 -6 0 -6 -6 0 -18 5 -10 6 -24 1 -32 -4 -7 -4 -23 0 -36 5
-12 6 -24 3 -27 -7 -8 -8 -106 0 -113 3 -3 1 -19 -3 -35 -5 -18 -5 -29 1 -29
6 0 7 -5 4 -10 -8 -13 -10 -134 -3 -146 3 -5 2 -18 -2 -29 -4 -11 -4 -32 1
-47 4 -16 5 -28 1 -28 -8 0 -7 -209 1 -216 3 -3 1 -19 -3 -35 -5 -16 -5 -29 0
-29 4 0 4 -16 0 -35 -5 -21 -4 -35 2 -35 5 0 6 -5 3 -11 -9 -14 -10 -113 -1
-127 3 -6 2 -13 -3 -16 -5 -4 -6 -18 -2 -34 5 -15 5 -37 0 -49 -5 -13 -4 -25
1 -28 6 -3 6 -15 0 -30 -5 -13 -5 -27 -1 -29 5 -3 5 -24 1 -46 -4 -22 -4 -40
0 -40 4 0 4 -16 0 -35 -5 -21 -4 -35 2 -35 5 0 6 -5 3 -10 -4 -6 -6 -32 -6
-58 1 -45 1 -63 1 -97 0 -8 0 -21 0 -27 1 -7 1 -42 0 -78 0 -36 1 -84 2 -107
1 -24 -1 -45 -4 -49 -4 -3 -2 -19 2 -35 5 -16 6 -29 2 -29 -8 0 -7 -248 1
-256 3 -3 2 -17 -3 -30 -5 -13 -5 -26 -1 -28 5 -3 5 -24 1 -46 -4 -22 -4 -40
0 -40 4 0 4 -16 0 -35 -5 -21 -4 -35 2 -35 5 0 6 -5 3 -10 -4 -6 -6 -32 -6
-58 1 -45 1 -63 1 -97 0 -8 0 -21 0 -27 1 -7 0 -43 -1 -81 -1 -37 1 -70 4 -73
3 -3 1 -19 -3 -35 -5 -16 -5 -29 0 -29 4 0 4 -16 0 -35 -5 -21 -4 -35 2 -35 5
0 6 -5 3 -11 -9 -14 -10 -113 -1 -127 3 -6 2 -13 -3 -16 -5 -4 -6 -18 -2 -34
5 -15 5 -37 0 -49 -5 -13 -4 -25 1 -28 6 -3 6 -15 0 -30 -5 -13 -5 -27 -1 -29
5 -3 5 -24 1 -46 -4 -22 -4 -40 0 -40 4 0 4 -16 0 -35 -5 -21 -4 -35 2 -35 5
0 6 -5 3 -10 -4 -6 -6 -32 -6 -58 1 -45 1 -63 1 -97 0 -8 0 -21 0 -27 1 -7 0
-43 -1 -81 -1 -37 1 -70 4 -73 3 -3 1 -19 -3 -35 -5 -16 -5 -29 0 -29 4 0 4
-16 0 -35 -5 -21 -4 -35 2 -35 5 0 6 -5 3 -11 -9 -14 -10 -113 -1 -127 3 -6 2
-13 -3 -16 -5 -4 -6 -18 -2 -34 5 -15 5 -37 0 -49 -5 -13 -4 -25 1 -28 6 -3 6
-15 0 -30 -5 -13 -5 -27 -1 -29 5 -3 5 -24 1 -46 -4 -22 -4 -40 0 -40 4 0 4
-16 0 -35 -4 -19 -4 -35 0 -35 5 0 5 -12 1 -28 -5 -15 -5 -37 0 -49 4 -12 4
-25 -1 -28 -5 -3 -5 -18 0 -35 5 -17 6 -30 2 -30 -8 0 -7 -248 1 -256 3 -3 2
-17 -3 -30 -5 -13 -5 -26 -1 -28 5 -3 5 -24 1 -46 -4 -22 -4 -40 0 -40 4 0 4
-16 0 -35 -4 -19 -4 -35 0 -35 5 0 5 -13 0 -29 -6 -20 -4 -33 3 -38 9 -7 985
-10 1127 -4 l25 1 2 1198 c1 1057 4 1344 17 1497 11 127 19 202 23 220 2 11 6
35 8 54 7 54 15 103 19 110 2 3 7 28 10 55 4 27 11 57 17 68 5 10 7 18 5 18
-3 0 -1 11 4 25 5 14 12 36 14 48 21 98 129 314 196 391 76 89 99 112 155 151
58 42 155 95 179 99 6 1 16 4 21 7 11 7 62 20 130 34 66 14 119 18 280 20 300
4 490 -41 665 -158 42 -28 157 -138 207 -200 21 -25 72 -118 74 -134 1 -5 9
-24 19 -43 9 -19 21 -48 25 -65 9 -34 10 -35 18 -55 3 -8 8 -26 10 -40 3 -14
12 -56 21 -93 14 -63 18 -87 31 -187 36 -278 39 -404 39 -1742 1 -1129 3
-1278 16 -1279 8 -1 282 -2 607 -2 521 -2 593 0 594 13 0 8 2 573 4 1255 2
1128 5 1312 19 1470 15 156 20 200 32 258 3 16 7 38 9 50 4 38 26 140 41 194
9 29 15 55 15 58 -1 25 107 269 134 302 5 7 34 45 64 85 52 71 133 147 189
178 15 8 29 18 32 21 12 16 167 76 216 84 16 3 65 12 109 19 82 14 375 15 445
2 19 -4 46 -9 60 -11 45 -8 135 -39 142 -49 4 -6 8 -8 8 -3 0 10 113 -47 169
-86 83 -57 252 -244 243 -269 -1 -5 1 -8 6 -8 4 0 13 -15 21 -32 7 -18 19 -47
27 -65 27 -61 72 -229 88 -333 4 -19 8 -44 10 -55 15 -80 34 -294 41 -480 2
-55 4 -661 5 -1347 0 -687 4 -1248 8 -1249 29 -4 1136 -3 1142 1 8 6 5 3208
-4 3285 -3 28 -8 79 -11 115 -3 36 -7 76 -9 90 -3 14 -7 45 -10 70 -6 47 -9
63 -26 145 -35 171 -75 305 -130 430 -106 246 -264 463 -456 629 -99 85 -113
96 -123 96 -5 0 -11 4 -13 8 -6 17 -205 130 -293 166 -49 21 -99 42 -110 47
-11 5 -29 10 -40 12 -11 2 -51 13 -90 24 -38 11 -99 26 -135 33 -36 6 -76 14
-90 17 -57 13 -250 26 -380 27 -98 0 -237 -11 -251 -20 -3 -2 -21 -6 -40 -8
-79 -12 -286 -77 -387 -122 -29 -13 -54 -24 -57 -24 -12 0 -168 -79 -225 -114
-151 -92 -330 -259 -449 -418 -34 -46 -69 -91 -77 -101 -8 -9 -14 -21 -14 -25
0 -4 -9 -18 -20 -32 l-20 -25 -28 31 c-15 16 -52 59 -82 94 -75 87 -192 204
-270 270 -36 30 -67 57 -70 61 -4 4 -28 21 -132 91 -15 9 -64 36 -110 59 -137
67 -148 73 -148 81 0 5 -6 8 -14 8 -7 0 -19 7 -26 15 -7 9 -15 13 -18 10 -3
-3 -12 1 -21 8 -30 26 -222 91 -326 111 -16 3 -39 8 -50 10 -42 8 -102 17
-145 21 -25 2 -74 7 -110 11 -66 7 -429 12 -435 6z"/>
<path d="M22685 22382 c-1 -1 -36 -5 -76 -8 -41 -3 -87 -7 -104 -9 -71 -9
-132 -17 -160 -20 -16 -2 -31 -5 -32 -6 -3 -2 -2 -1 -58 -14 -22 -4 -43 -8
-46 -7 -3 0 -27 -5 -52 -13 -26 -8 -47 -11 -47 -8 0 3 -7 0 -15 -7 -8 -7 -15
-10 -15 -6 0 3 -16 0 -35 -8 -20 -9 -38 -15 -40 -15 -79 -5 -495 -202 -513
-243 -2 -5 -8 -8 -14 -8 -5 0 -49 -29 -96 -64 -270 -201 -473 -400 -648 -633
-25 -34 -154 -240 -154 -246 0 -3 -16 -33 -35 -66 -19 -34 -34 -64 -35 -66 -1
-9 -50 -119 -66 -147 -8 -16 -12 -28 -8 -28 3 0 0 -10 -8 -22 -8 -13 -20 -45
-28 -73 -7 -27 -16 -54 -19 -60 -6 -11 -12 -33 -13 -52 -1 -7 -6 -13 -11 -13
-6 0 -8 -3 -4 -6 3 -3 2 -16 -3 -29 -5 -13 -12 -42 -15 -65 -3 -23 -10 -52
-14 -64 -5 -11 -11 -43 -15 -71 -4 -27 -10 -63 -12 -80 -15 -84 -21 -146 -29
-260 -2 -33 -4 -62 -5 -65 -1 -3 -1 -66 -1 -141 0 -159 9 -285 26 -394 2 -11
6 -40 9 -65 16 -110 94 -393 139 -500 6 -14 11 -27 12 -30 30 -88 211 -429
253 -476 5 -6 17 -24 25 -40 8 -16 25 -39 36 -51 12 -12 21 -25 21 -28 0 -9
143 -188 219 -275 117 -134 178 -192 369 -351 13 -10 26 -19 28 -19 2 0 35
-22 74 -50 39 -27 72 -50 75 -50 3 0 22 -11 43 -23 143 -91 431 -209 617 -253
6 -1 30 -7 55 -13 25 -7 59 -14 75 -16 17 -3 41 -7 55 -10 14 -2 41 -7 60 -10
19 -3 46 -7 60 -10 24 -4 109 -13 195 -21 55 -5 410 -4 465 1 177 16 185 17
280 35 30 6 71 13 90 16 81 13 259 70 350 112 100 47 229 125 323 196 77 58
257 249 257 272 0 5 10 22 23 37 l22 29 0 -291 c0 -250 2 -290 15 -293 27 -6
1130 -2 1136 4 4 4 8 4794 4 5049 l0 25 -577 0 -578 -1 0 -292 c0 -161 -3
-293 -7 -293 -5 0 -8 3 -8 8 0 13 -128 149 -201 214 -98 86 -113 98 -209 162
-83 56 -267 157 -295 163 -5 1 -44 14 -85 28 -41 15 -82 28 -90 30 -8 2 -42
11 -75 20 -62 16 -179 40 -250 50 -23 3 -52 7 -65 10 -70 13 -534 28 -545 17z
m370 -1207 c50 -7 120 -20 155 -30 36 -9 70 -18 75 -19 6 -2 23 -8 38 -14 16
-7 31 -12 35 -12 8 0 177 -85 222 -111 33 -20 131 -94 188 -143 39 -33 182
-180 182 -187 0 -3 10 -17 23 -31 50 -55 99 -133 151 -241 51 -104 73 -162 90
-234 2 -10 9 -38 16 -63 11 -45 14 -64 30 -175 10 -65 6 -417 -4 -475 -4 -19
-9 -46 -13 -60 -3 -14 -6 -28 -5 -32 4 -17 -61 -199 -95 -268 -40 -82 -121
-208 -147 -229 -9 -7 -16 -17 -16 -22 0 -4 -26 -36 -57 -70 -136 -147 -234
-238 -313 -291 -94 -61 -150 -92 -150 -82 0 4 -6 2 -13 -4 -10 -9 -119 -54
-137 -57 -3 -1 -14 -4 -25 -8 -11 -3 -31 -8 -45 -11 -14 -2 -47 -9 -75 -16
-163 -38 -472 -32 -640 12 -22 5 -47 11 -55 13 -62 13 -245 86 -302 122 -21
13 -40 23 -44 23 -6 0 -134 88 -144 99 -3 4 -21 18 -40 32 -56 42 -186 176
-236 243 -25 34 -50 68 -57 76 -40 51 -138 254 -153 315 -4 17 -9 35 -13 40
-6 12 -11 31 -14 62 -1 13 -5 23 -9 23 -4 0 -7 8 -7 18 1 19 -10 80 -16 100
-17 48 -24 340 -12 452 12 115 66 332 96 388 6 11 7 22 4 26 -3 3 -1 6 5 6 7
0 12 5 12 11 0 6 14 40 30 76 17 35 30 69 30 74 0 5 4 9 9 9 5 0 11 8 14 18
10 27 78 141 122 201 21 28 114 119 161 157 27 21 51 42 52 47 2 4 10 7 18 7
8 0 14 4 14 9 0 5 14 14 30 21 17 7 30 16 30 21 0 5 6 9 14 9 8 0 16 3 18 8 7
16 180 93 274 120 107 32 134 38 229 48 33 3 61 8 63 9 9 8 333 0 407 -10z"/>
<path d="M37937 22384 c-1 -1 -54 -5 -117 -9 -63 -4 -117 -8 -120 -10 -3 -2
-28 -6 -55 -9 -28 -4 -59 -8 -70 -10 -11 -2 -42 -7 -70 -11 -27 -5 -52 -9 -55
-10 -29 -8 -120 -26 -122 -24 -2 1 -12 -3 -24 -9 -11 -6 -32 -13 -45 -16 -42
-8 -172 -53 -232 -79 -31 -14 -60 -26 -62 -27 -12 -2 -40 -14 -45 -19 -3 -3
-34 -21 -70 -40 -71 -37 -242 -147 -277 -177 -11 -10 -31 -26 -43 -34 -118
-79 -395 -343 -503 -478 -70 -87 -183 -254 -228 -337 -37 -69 -106 -207 -108
-217 -1 -5 -10 -24 -21 -43 -11 -20 -20 -40 -20 -46 0 -6 -6 -25 -14 -42 -8
-18 -24 -63 -37 -102 -12 -38 -27 -88 -34 -110 -8 -23 -21 -77 -30 -120 -16
-78 -20 -96 -30 -152 -5 -31 -16 -111 -20 -158 -2 -16 -6 -59 -10 -95 -9 -83
-9 -409 0 -475 4 -27 8 -70 10 -95 2 -25 4 -45 5 -45 1 0 3 -11 5 -25 9 -75
17 -125 20 -130 2 -4 7 -22 10 -41 12 -68 72 -282 94 -334 5 -11 26 -60 46
-110 61 -149 221 -442 247 -453 4 -2 8 -8 8 -14 0 -12 70 -111 82 -116 5 -2 8
-8 8 -13 0 -10 127 -171 195 -248 61 -70 222 -228 280 -277 33 -27 62 -52 65
-55 3 -3 34 -26 70 -50 36 -24 67 -47 68 -51 2 -5 8 -8 13 -8 5 0 34 -16 64
-36 64 -41 264 -142 315 -159 23 -8 48 -18 60 -24 34 -18 302 -97 360 -106 19
-3 49 -10 65 -15 17 -5 53 -11 80 -15 28 -3 61 -8 75 -10 26 -4 118 -15 185
-21 50 -4 404 -4 465 0 74 6 183 17 215 22 324 55 457 101 670 227 55 33 102
64 103 69 2 4 10 8 17 8 7 0 15 3 17 8 2 4 26 25 53 47 95 75 163 152 267 298
11 15 13 -32 13 -272 -1 -195 2 -291 9 -294 9 -2 1117 -1 1139 2 4 1 7 1143 7
2539 l0 2538 -577 0 -578 -1 0 -290 c0 -186 -4 -288 -10 -285 -6 2 -38 36 -72
75 -128 147 -319 296 -507 399 -58 32 -174 82 -211 91 -5 1 -17 5 -25 8 -18 7
-203 57 -234 63 -11 2 -32 6 -46 9 -30 6 -145 25 -182 30 -96 13 -490 28 -501
19z m388 -1208 c17 -3 46 -9 65 -12 19 -3 46 -8 59 -10 54 -10 212 -66 278
-98 74 -36 236 -141 241 -157 2 -5 7 -9 12 -9 10 0 119 -100 169 -154 20 -22
48 -52 64 -68 15 -16 27 -33 27 -38 0 -5 6 -13 14 -17 31 -19 158 -246 191
-343 1 -3 7 -18 14 -34 6 -16 13 -38 16 -50 2 -11 4 -22 4 -23 1 -2 1 -4 1 -5
0 -2 6 -25 14 -53 8 -27 17 -70 21 -95 4 -25 9 -54 11 -65 7 -32 18 -311 14
-325 -1 -3 -3 -36 -5 -74 -2 -38 -7 -81 -10 -95 -4 -14 -9 -42 -11 -61 -7 -49
-34 -153 -44 -165 -5 -5 -9 -14 -9 -20 -4 -41 -60 -157 -125 -259 -100 -156
-324 -390 -458 -478 -74 -49 -186 -108 -213 -112 -5 -1 -14 -4 -20 -8 -17 -11
-208 -60 -240 -62 -17 -2 -35 -5 -41 -7 -32 -18 -439 -16 -439 1 0 1 -16 3
-35 5 -58 6 -94 13 -120 23 -14 5 -27 10 -30 10 -3 0 -30 7 -60 16 -281 83
-575 302 -754 562 -49 73 -106 180 -99 188 3 3 1 6 -5 6 -7 0 -12 5 -12 10 0
6 -9 30 -20 52 -11 23 -20 48 -20 55 0 7 -4 21 -9 31 -16 30 -46 157 -62 257
-16 103 -18 364 -3 488 14 120 27 183 56 272 10 33 21 69 23 80 3 11 9 29 14
40 6 11 22 45 35 75 41 90 109 200 128 208 4 2 8 8 8 14 0 14 147 162 205 205
27 21 56 44 64 51 20 19 120 82 130 82 5 0 11 4 13 8 9 24 260 122 348 137 19
3 67 11 105 18 72 13 441 15 500 3z"/>
<path d="M28958 22250 c-7 -32 -2 -5049 5 -5057 9 -8 1147 -11 1148 -3 1 7 1
4984 0 5036 l-1 40 -574 0 c-511 0 -575 -2 -578 -16z"/>
</g>
</svg>
