<svg width="20" height="20" viewBox="0 0 20 20" fill="none" xmlns="http://www.w3.org/2000/svg">
<path d="M10 2.62651C12.3855 2.62651 12.7108 2.62651 13.6867 2.62651C14.5542 2.62651 14.988 2.84337 15.3133 2.95181C15.747 3.16868 16.0723 3.27711 16.3976 3.60241C16.7229 3.92771 16.9398 4.25301 17.0482 4.68675C17.1566 5.01205 17.2651 5.44578 17.3735 6.31325C17.3735 7.28916 17.3735 7.50602 17.3735 10C17.3735 12.494 17.3735 12.7108 17.3735 13.6867C17.3735 14.5542 17.1566 14.988 17.0482 15.3133C16.8313 15.747 16.7229 16.0723 16.3976 16.3976C16.0723 16.7229 15.747 16.9398 15.3133 17.0482C14.988 17.1566 14.5542 17.2651 13.6867 17.3735C12.7108 17.3735 12.494 17.3735 10 17.3735C7.50602 17.3735 7.28916 17.3735 6.31325 17.3735C5.44578 17.3735 5.01205 17.1566 4.68675 17.0482C4.25301 16.8313 3.92771 16.7229 3.60241 16.3976C3.27711 16.0723 3.06024 15.747 2.95181 15.3133C2.84337 14.988 2.73494 14.5542 2.62651 13.6867C2.62651 12.7108 2.62651 12.494 2.62651 10C2.62651 7.50602 2.62651 7.28916 2.62651 6.31325C2.62651 5.44578 2.84337 5.01205 2.95181 4.68675C3.16868 4.25301 3.27711 3.92771 3.60241 3.60241C3.92771 3.27711 4.25301 3.06024 4.68675 2.95181C5.01205 2.84337 5.44578 2.73494 6.31325 2.62651C7.28916 2.62651 7.61446 2.62651 10 2.62651ZM10 1C7.50602 1 7.28916 1 6.31325 1C5.33735 1 4.68675 1.21687 4.14458 1.43374C3.60241 1.6506 3.06024 1.9759 2.51807 2.51807C1.9759 3.06024 1.75904 3.49398 1.43374 4.14458C1.21687 4.68675 1.10843 5.33735 1 6.31325C1 7.28916 1 7.61446 1 10C1 12.494 1 12.7108 1 13.6867C1 14.6627 1.21687 15.3133 1.43374 15.8554C1.6506 16.3976 1.9759 16.9398 2.51807 17.4819C3.06024 18.0241 3.49398 18.241 4.14458 18.5663C4.68675 18.7831 5.33735 18.8916 6.31325 19C7.28916 19 7.61446 19 10 19C12.3855 19 12.7108 19 13.6867 19C14.6627 19 15.3133 18.7831 15.8554 18.5663C16.3976 18.3494 16.9398 18.0241 17.4819 17.4819C18.0241 16.9398 18.241 16.506 18.5663 15.8554C18.7831 15.3133 18.8916 14.6627 19 13.6867C19 12.7108 19 12.3855 19 10C19 7.61446 19 7.28916 19 6.31325C19 5.33735 18.7831 4.68675 18.5663 4.14458C18.3494 3.60241 18.0241 3.06024 17.4819 2.51807C16.9398 1.9759 16.506 1.75904 15.8554 1.43374C15.3133 1.21687 14.6627 1.10843 13.6867 1C12.7108 1 12.494 1 10 1Z" fill="black"/>
<path d="M10 5.33735C7.39759 5.33735 5.33735 7.39759 5.33735 10C5.33735 12.6024 7.39759 14.6627 10 14.6627C12.6024 14.6627 14.6627 12.6024 14.6627 10C14.6627 7.39759 12.6024 5.33735 10 5.33735ZM10 13.0361C8.3735 13.0361 6.96386 11.7349 6.96386 10C6.96386 8.3735 8.26506 6.96386 10 6.96386C11.6265 6.96386 13.0361 8.26506 13.0361 10C13.0361 11.6265 11.6265 13.0361 10 13.0361Z" fill="black"/>
<path d="M14.7711 6.31325C15.3699 6.31325 15.8554 5.82778 15.8554 5.22892C15.8554 4.63005 15.3699 4.14458 14.7711 4.14458C14.1722 4.14458 13.6867 4.63005 13.6867 5.22892C13.6867 5.82778 14.1722 6.31325 14.7711 6.31325Z" fill="black"/>
</svg>
