<svg width="180" height="30" viewBox="0 0 180 30" fill="none" xmlns="http://www.w3.org/2000/svg">
<path d="M56.5181 7.10526V9.73684C57.3217 8.68421 58.1252 7.89475 59.1967 7.36843C60.2681 6.84212 61.3395 6.57895 62.6788 6.57895C64.5538 6.57895 66.1609 6.84209 67.2324 7.63157C68.5716 8.15788 69.643 9.21053 70.7145 10.5263C71.518 9.21053 72.5895 8.15788 73.6609 7.63157C74.7323 7.10525 76.0716 6.57895 77.4109 6.57895C80.0894 6.57895 82.2323 7.36842 83.8395 9.21053C85.4466 11.0526 85.9823 13.4211 85.9823 16.579V29.4737H80.893V19.4737C80.893 16.5789 80.6252 14.4737 79.8216 13.4211C79.018 12.3684 77.9466 11.8421 76.3395 11.8421C74.4645 11.8421 73.3931 12.3684 72.5895 13.6842C71.7859 15 71.518 17.1053 71.518 20V29.4737H66.1609V19.4737C66.1609 16.5789 65.8931 14.4737 65.0895 13.4211C64.2859 12.3684 63.2145 11.8421 61.3395 11.8421C59.4645 11.8421 58.3931 12.3684 57.5895 13.6842C56.7859 15 56.5181 17.1053 56.5181 20V29.4737H51.4288V7.10526H56.5181ZM94.2859 18.1579C94.2859 20 94.8216 21.579 96.1608 22.8947C97.5001 24.2105 99.1073 24.7368 100.714 24.7368C102.322 24.7368 103.929 24.2105 105 22.8947C106.339 21.579 106.875 20.2632 106.875 18.4211C106.875 16.579 106.339 15 105 13.6842C103.661 12.3684 102.322 11.8421 100.447 11.8421C98.5716 11.8421 97.2323 12.3684 95.893 13.6842C95.0894 14.7368 94.2859 16.3158 94.2859 18.1579ZM107.947 29.4737V26.8421C107.411 27.8947 106.339 28.6842 105.268 29.2106C104.197 29.7369 102.589 30 100.982 30C97.768 30 94.8216 28.9474 92.6787 26.579C90.5359 24.2106 89.1966 21.5789 89.1966 18.1579C89.1966 16.5789 89.4645 15 90.0002 13.6842C90.5359 12.3684 91.3394 11.0526 92.4109 10C93.4823 8.94738 94.8216 7.89475 96.1608 7.36843C97.5001 6.84212 99.1073 6.57895 100.714 6.57895C102.322 6.57895 103.661 6.84212 105 7.36843C106.072 7.89475 107.143 8.68421 107.947 9.73684V7.10526H113.036V29.4737H107.947ZM117.589 29.4737V0H122.679V29.4737H117.589ZM132.589 4.99999H127.5V0H132.589V4.99999ZM127.5 29.4737V7.10526H132.589V29.4737H127.5ZM142.5 29.4737H137.411V0H142.5V17.6316L149.732 7.36843H155.625L147.857 17.8948L157.232 29.4737H150.536L142.232 18.1579V29.4737H142.5ZM161.518 18.1579C161.518 20 162.054 21.579 163.393 22.8947C164.732 24.2105 166.339 24.7368 167.946 24.7368C169.554 24.7368 171.161 24.2105 172.232 22.8947C173.571 21.579 174.107 20.2632 174.107 18.4211C174.107 16.579 173.571 15 172.232 13.6842C170.893 12.3684 169.554 11.8421 167.679 11.8421C165.804 11.8421 164.464 12.3684 163.125 13.6842C162.054 14.7368 161.518 16.3158 161.518 18.1579ZM174.911 29.4737V26.8421C174.375 27.8947 173.304 28.6842 172.232 29.2106C171.161 29.7369 169.554 30 167.946 30C164.732 30 161.786 28.9474 159.643 26.579C157.5 24.2106 156.161 21.5789 156.161 18.1579C156.161 16.5789 156.429 15 156.964 13.6842C157.5 12.3684 158.304 11.0526 159.375 10C160.446 8.94738 161.786 7.89475 163.125 7.36843C164.464 6.84212 166.071 6.57895 167.679 6.57895C169.286 6.57895 170.625 6.84212 171.964 7.36843C173.036 7.89475 174.107 8.68421 174.911 9.73684V7.10526H180V29.4737H174.911Z" fill="black"/>
<path d="M5.35713 18.1575C5.35713 20.2628 5.89286 21.8418 6.96429 23.1576C8.03571 24.4734 9.64282 24.9997 11.7857 24.9997C13.6607 24.9997 15.2678 24.4734 16.3393 23.1576C17.4107 21.8418 17.9464 20.2628 17.9464 18.1575C17.9464 16.3154 17.4107 14.7365 16.0714 13.4207C14.7321 12.1049 13.3928 11.5786 11.5178 11.5786C9.64285 11.5786 8.03571 12.1049 6.96429 13.4207C6.16072 14.7365 5.35713 16.3154 5.35713 18.1575ZM0 18.1575C0 16.5786 0.267865 14.9997 0.803578 13.6839C1.33929 12.3681 2.14284 11.0523 3.21427 9.99967C4.2857 8.94704 5.625 7.8944 6.96429 7.36809C8.30357 6.84177 9.9107 6.57861 11.5178 6.57861C13.125 6.57861 14.7321 6.84177 16.0714 7.36809C17.4107 7.8944 18.7499 8.68386 19.8214 9.73649C20.8928 10.7891 21.9642 12.1049 22.4999 13.6839C23.0356 15.2628 23.5714 16.5786 23.5714 18.1575C23.5714 19.7365 23.3035 21.3154 22.7678 22.8944C22.2321 24.2102 21.4285 25.526 20.3571 26.5786C19.2857 27.6313 17.9464 28.6839 16.6071 29.2102C15.2678 29.7365 13.6607 29.9997 11.7857 29.9997C10.1785 29.9997 8.5714 29.7365 7.23212 29.2102C5.89284 28.6839 4.55357 27.6313 3.48214 26.5786C2.41072 25.526 1.60712 24.2102 1.07141 22.6313C0.26784 21.3155 0 19.7365 0 18.1575ZM32.1428 7.10491V9.73649C32.9464 8.68386 33.7499 7.8944 34.8214 7.36809C35.8928 6.84177 36.9642 6.57861 38.3035 6.57861C39.9106 6.57861 41.2499 6.84177 42.5892 7.36809C43.9285 7.8944 44.732 8.94704 45.5356 9.99967C46.0713 10.7891 46.3392 11.8418 46.607 12.8944C46.8749 13.947 46.8749 15.526 46.8749 17.3681V29.2102H41.5178V19.2102C41.5178 16.3155 41.2499 14.2102 40.4464 13.1576C39.6428 12.1049 38.5713 11.5786 36.6963 11.5786C34.8213 11.5786 33.7499 12.1049 32.9464 13.4207C32.1428 14.7365 31.8749 16.8418 31.8749 19.7365V29.2102H26.7857V6.84178H32.1428V7.10491Z" fill="#80EE98"/>
</svg>
