<svg width="120" height="20" viewBox="0 0 120 20" fill="none" xmlns="http://www.w3.org/2000/svg">
<path d="M37.678 4.73684V6.49123C38.2137 5.78947 38.7494 5.26317 39.4637 4.91229C40.178 4.56141 40.8923 4.38597 41.7851 4.38597C43.0351 4.38597 44.1066 4.5614 44.8209 5.08771C45.7137 5.43859 46.428 6.14036 47.1423 7.01755C47.678 6.14036 48.3923 5.43859 49.1066 5.08771C49.8208 4.73684 50.7137 4.38597 51.6065 4.38597C53.3923 4.38597 54.8208 4.91228 55.8923 6.14036C56.9637 7.36843 57.3208 8.94738 57.3208 11.0526V19.6492H53.928V12.9825C53.928 11.0526 53.7494 9.64914 53.2137 8.94739C52.678 8.24563 51.9637 7.89474 50.8923 7.89474C49.6423 7.89474 48.928 8.24562 48.3923 9.12281C47.8566 10 47.678 11.4035 47.678 13.3334V19.6492H44.1066V12.9825C44.1066 11.0526 43.928 9.64914 43.3923 8.94739C42.8566 8.24563 42.1423 7.89474 40.8923 7.89474C39.6423 7.89474 38.928 8.24562 38.3923 9.12281C37.8566 10 37.678 11.4035 37.678 13.3334V19.6492H34.2852V4.73684H37.678ZM62.8565 12.1053C62.8565 13.3333 63.2137 14.386 64.1065 15.2632C64.9994 16.1404 66.0708 16.4912 67.1423 16.4912C68.2137 16.4912 69.2851 16.1404 69.9994 15.2632C70.8922 14.386 71.2494 13.5088 71.2494 12.2807C71.2494 11.0526 70.8922 10 69.9994 9.12281C69.1065 8.24562 68.2137 7.89474 66.9637 7.89474C65.7137 7.89474 64.8208 8.24562 63.928 9.12281C63.3923 9.82456 62.8565 10.8772 62.8565 12.1053ZM71.9636 19.6492V17.8947C71.6065 18.5965 70.8922 19.1228 70.178 19.4737C69.4637 19.8246 68.3922 20 67.3208 20C65.178 20 63.2137 19.2983 61.7851 17.7193C60.3565 16.1404 59.4637 14.386 59.4637 12.1053C59.4637 11.0526 59.6423 10 59.9994 9.12281C60.3565 8.24562 60.8923 7.36843 61.6065 6.66668C62.3208 5.96492 63.2137 5.26317 64.1065 4.91229C64.9994 4.56141 66.0708 4.38597 67.1423 4.38597C68.2137 4.38597 69.1065 4.56141 69.9994 4.91229C70.7137 5.26317 71.4279 5.78947 71.9636 6.49123V4.73684H75.3565V19.6492H71.9636ZM78.3922 19.6492V0H81.785V19.6492H78.3922ZM88.3922 3.33333H84.9994V0H88.3922V3.33333ZM84.9994 19.6492V4.73684H88.3922V19.6492H84.9994ZM94.9993 19.6492H91.6065V0H94.9993V11.7544L99.8207 4.91229H103.749L98.5708 11.9298L104.821 19.6492H100.356L94.8208 12.1053V19.6492H94.9993ZM107.678 12.1053C107.678 13.3333 108.035 14.386 108.928 15.2632C109.821 16.1404 110.892 16.4912 111.964 16.4912C113.035 16.4912 114.106 16.1404 114.821 15.2632C115.714 14.386 116.071 13.5088 116.071 12.2807C116.071 11.0526 115.714 10 114.821 9.12281C113.928 8.24562 113.035 7.89474 111.785 7.89474C110.535 7.89474 109.642 8.24562 108.749 9.12281C108.035 9.82456 107.678 10.8772 107.678 12.1053ZM116.606 19.6492V17.8947C116.249 18.5965 115.535 19.1228 114.821 19.4737C114.106 19.8246 113.035 20 111.964 20C109.821 20 107.856 19.2983 106.428 17.7193C104.999 16.1404 104.106 14.386 104.106 12.1053C104.106 11.0526 104.285 10 104.642 9.12281C104.999 8.24562 105.535 7.36843 106.249 6.66668C106.964 5.96492 107.856 5.26317 108.749 4.91229C109.642 4.56141 110.714 4.38597 111.785 4.38597C112.856 4.38597 113.749 4.56141 114.642 4.91229C115.356 5.26317 116.071 5.78947 116.606 6.49123V4.73684H119.999V19.6492H116.606Z" fill="black"/>
<path d="M3.57142 12.105C3.57142 13.5085 3.92858 14.5612 4.64286 15.4384C5.35714 16.3156 6.42855 16.6665 7.85712 16.6665C9.10711 16.6665 10.1786 16.3156 10.8928 15.4384C11.6071 14.5612 11.9643 13.5085 11.9643 12.105C11.9643 10.877 11.6071 9.82435 10.7143 8.94716C9.82141 8.06997 8.92856 7.71907 7.67856 7.71907C6.42857 7.71907 5.35714 8.06997 4.64286 8.94716C4.10715 9.82435 3.57142 10.877 3.57142 12.105ZM0 12.105C0 11.0524 0.178577 9.99978 0.535719 9.12258C0.892861 8.24539 1.42856 7.36821 2.14285 6.66645C2.85713 5.9647 3.75 5.26294 4.64286 4.91206C5.53571 4.56119 6.60714 4.38574 7.67856 4.38574C8.74999 4.38574 9.82141 4.56119 10.7143 4.91206C11.6071 5.26294 12.5 5.78925 13.2142 6.491C13.9285 7.19276 14.6428 8.06995 15 9.12258C15.3571 10.1752 15.7143 11.0524 15.7143 12.105C15.7143 13.1577 15.5357 14.2103 15.1785 15.2629C14.8214 16.1401 14.2857 17.0173 13.5714 17.7191C12.8571 18.4209 11.9643 19.1226 11.0714 19.4735C10.1785 19.8244 9.10711 19.9998 7.85712 19.9998C6.78569 19.9998 5.71427 19.8244 4.82141 19.4735C3.92856 19.1226 3.03571 18.4209 2.32143 17.7191C1.60715 17.0173 1.07142 16.1401 0.714273 15.0875C0.17856 14.2103 0 13.1577 0 12.105ZM21.4285 4.73661V6.491C21.9642 5.78925 22.5 5.26294 23.2142 4.91206C23.9285 4.56119 24.6428 4.38574 25.5357 4.38574C26.6071 4.38574 27.4999 4.56119 28.3928 4.91206C29.2856 5.26294 29.8214 5.9647 30.3571 6.66645C30.7142 7.19277 30.8928 7.89451 31.0714 8.59626C31.2499 9.29802 31.2499 10.3507 31.2499 11.5787V19.4735H27.6785V12.8068C27.6785 10.877 27.5 9.47347 26.9642 8.77171C26.4285 8.06996 25.7142 7.71907 24.4642 7.71907C23.2142 7.71907 22.5 8.06997 21.9643 8.94716C21.4285 9.82435 21.2499 11.2279 21.2499 13.1577V19.4735H17.8571V4.56119H21.4285V4.73661Z" fill="#80EE98"/>
</svg>
