<svg width="20" height="20" viewBox="0 0 20 20" fill="none" xmlns="http://www.w3.org/2000/svg">
<path d="M0.353259 9.63095L4.96165 11.4089L6.74539 17.3386C6.85952 17.7184 7.30879 17.8588 7.60699 17.6068L10.1758 15.4421C10.4451 15.2153 10.8286 15.204 11.11 15.4151L15.7432 18.8922C16.0622 19.1319 16.5141 18.9513 16.5941 18.5528L19.9882 1.67669C20.0756 1.24143 19.6618 0.878332 19.2609 1.03862L0.347859 8.58051C-0.118874 8.76658 -0.114808 9.44964 0.353259 9.63095ZM6.45792 10.4625L15.4644 4.72842C15.6263 4.62567 15.7929 4.85192 15.6539 4.98519L8.22085 12.1273C7.95959 12.3787 7.79105 12.7151 7.74332 13.0803L7.49012 15.0199C7.45659 15.2789 7.10465 15.3046 7.03552 15.054L6.06172 11.517C5.95019 11.1136 6.11272 10.6827 6.45792 10.4625Z" fill="black"/>
</svg>
